<svg width="45" height="45" viewBox="0 0 45 45" fill="none" xmlns="http://www.w3.org/2000/svg">
<path d="M36.5633 0.656677H8.46329C4.15212 0.656677 0.657227 4.17618 0.657227 8.51772V36.8156C0.657227 41.1571 4.15212 44.6766 8.46329 44.6766H36.5633C40.8744 44.6766 44.3693 41.1571 44.3693 36.8156V8.51772C44.3693 4.17618 40.8744 0.656677 36.5633 0.656677Z" fill="url(#paint0_linear_121_1198)"/>
<path d="M19.1818 35.971H24.4995V22.5506H28.2136L28.6099 18.0586H24.4995V15.497C24.4995 14.439 24.7115 14.0214 25.7252 14.0214H28.6007V9.36227H24.9142C20.9513 9.36227 19.1726 11.1164 19.1726 14.4761V18.0586H16.4077V22.6063H19.1726V35.9617L19.1818 35.971Z" fill="white"/>
<defs>
<linearGradient id="paint0_linear_121_1198" x1="44.2866" y1="-5.5328" x2="3.84961" y2="46.0775" gradientUnits="userSpaceOnUse">
<stop stop-color="#435E86" stop-opacity="0.4"/>
<stop offset="1"/>
</linearGradient>
</defs>
</svg>
