<svg width="44" height="45" viewBox="0 0 44 45" fill="none" xmlns="http://www.w3.org/2000/svg">
<path d="M36.0467 0.656677H7.94669C3.63552 0.656677 0.140625 4.17618 0.140625 8.51772V36.8156C0.140625 41.1571 3.63552 44.6766 7.94669 44.6766H36.0467C40.3578 44.6766 43.8527 41.1571 43.8527 36.8156V8.51772C43.8527 4.17618 40.3578 0.656677 36.0467 0.656677Z" fill="url(#paint0_linear_121_1201)"/>
<path d="M22.084 12.7684C25.282 12.7684 25.6599 12.7777 26.9225 12.8427C28.0929 12.8983 28.7288 13.0932 29.1436 13.2603C29.7057 13.4831 30.102 13.7429 30.5168 14.1606C30.9407 14.5875 31.1987 14.9866 31.4107 15.5434C31.5766 15.9704 31.7702 16.6108 31.8254 17.7802C31.8807 19.0517 31.8992 19.4322 31.8992 22.6527C31.8992 25.8732 31.89 26.2538 31.8254 27.5253C31.7702 28.704 31.5766 29.3443 31.4107 29.762C31.1895 30.3281 30.9315 30.7272 30.5168 31.1541C30.102 31.5811 29.6965 31.8409 29.1436 32.0544C28.7196 32.2215 28.0837 32.4164 26.9225 32.4721C25.6599 32.5277 25.282 32.5463 22.084 32.5463C18.886 32.5463 18.5081 32.537 17.2455 32.4721C16.0751 32.4164 15.4392 32.2215 15.0244 32.0544C14.4623 31.8317 14.066 31.5718 13.642 31.1541C13.2273 30.7272 12.96 30.3281 12.7481 29.762C12.5822 29.3351 12.3886 28.6947 12.3333 27.5253C12.278 26.2538 12.2596 25.8732 12.2596 22.6527C12.2596 19.4322 12.2688 19.0517 12.3333 17.7802C12.3886 16.6015 12.5822 15.9611 12.7481 15.5434C12.9692 14.9773 13.2273 14.5782 13.642 14.1606C14.066 13.7336 14.4623 13.4738 15.0244 13.2603C15.4484 13.0932 16.0843 12.8983 17.2455 12.8427C18.5081 12.787 18.886 12.7684 22.084 12.7684ZM22.084 10.5966C18.8307 10.5966 18.4252 10.6152 17.1442 10.6709C15.8723 10.7266 14.9968 10.9308 14.2319 11.2278C13.4393 11.534 12.7757 11.9517 12.1121 12.6199C11.4486 13.2882 11.0339 13.9657 10.7297 14.7546C10.4348 15.5249 10.232 16.3973 10.1768 17.6874C10.1215 18.9774 10.103 19.3858 10.103 22.662C10.103 25.9382 10.1122 26.3466 10.1768 27.6366C10.232 28.9174 10.4348 29.7991 10.7297 30.5694C11.0339 31.3583 11.4486 32.0358 12.1121 32.7041C12.7757 33.3723 13.4485 33.79 14.2319 34.0962C14.9968 34.3932 15.8631 34.5974 17.1442 34.6531C18.4252 34.7088 18.8307 34.7273 22.084 34.7273C25.3373 34.7273 25.7428 34.7181 27.0238 34.6531C28.2957 34.5974 29.1712 34.3932 29.9361 34.0962C30.7287 33.79 31.3923 33.3723 32.0559 32.7041C32.7194 32.0358 33.1341 31.3583 33.4383 30.5694C33.7332 29.7991 33.9359 28.9267 33.9912 27.6366C34.0465 26.3466 34.065 25.9382 34.065 22.662C34.065 19.3858 34.0558 18.9774 33.9912 17.6874C33.9359 16.4066 33.7332 15.5249 33.4383 14.7546C33.1341 13.9657 32.7194 13.2882 32.0559 12.6199C31.3923 11.9517 30.7195 11.534 29.9361 11.2278C29.1712 10.9308 28.3049 10.7266 27.0238 10.6709C25.7428 10.6152 25.3373 10.5966 22.084 10.5966Z" fill="white"/>
<path d="M22.0841 16.4716C18.6834 16.4716 15.9277 19.2466 15.9277 22.6713C15.9277 26.096 18.6834 28.8711 22.0841 28.8711C25.4849 28.8711 28.2405 26.096 28.2405 22.6713C28.2405 19.2466 25.4849 16.4716 22.0841 16.4716ZM22.0841 26.69C19.8815 26.69 18.0935 24.8895 18.0935 22.6713C18.0935 20.4532 19.8815 18.6526 22.0841 18.6526C24.2868 18.6526 26.0747 20.4532 26.0747 22.6713C26.0747 24.8895 24.2868 26.69 22.0841 26.69Z" fill="white"/>
<path d="M29.9179 16.221C29.9179 17.0191 29.2728 17.6688 28.4802 17.6688C27.6876 17.6688 27.0425 17.0191 27.0425 16.221C27.0425 15.4228 27.6876 14.7731 28.4802 14.7731C29.2728 14.7731 29.9179 15.4228 29.9179 16.221Z" fill="white"/>
<defs>
<linearGradient id="paint0_linear_121_1201" x1="43.77" y1="-5.5328" x2="3.33301" y2="46.0775" gradientUnits="userSpaceOnUse">
<stop stop-color="#435E86" stop-opacity="0.4"/>
<stop offset="1"/>
</linearGradient>
</defs>
</svg>
