<svg width="45" height="45" viewBox="0 0 45 45" fill="none" xmlns="http://www.w3.org/2000/svg">
<path d="M36.4974 0.656677H8.39737C4.0862 0.656677 0.591309 4.17618 0.591309 8.51772V36.8156C0.591309 41.1571 4.0862 44.6766 8.39737 44.6766H36.4974C40.8085 44.6766 44.3034 41.1571 44.3034 36.8156V8.51772C44.3034 4.17618 40.8085 0.656677 36.4974 0.656677Z" fill="url(#paint0_linear_121_1211)"/>
<path d="M17.3918 17.7617H12.8667V32.4721H17.3918V17.7617Z" fill="white"/>
<path d="M15.1063 15.8312C16.5808 15.8312 17.779 14.6154 17.779 13.1118C17.779 11.6083 16.5808 10.3925 15.1063 10.3925C13.6317 10.3925 12.4336 11.6083 12.4336 13.1118C12.4336 14.6154 13.6317 15.8312 15.1063 15.8312Z" fill="white"/>
<path d="M24.6176 24.7502C24.6176 22.6806 25.5669 21.4462 27.3732 21.4462C29.0321 21.4462 29.8339 22.6249 29.8339 24.7502V32.4721H34.3314V23.1539C34.3314 19.2095 32.1103 17.3069 29.0137 17.3069C25.9171 17.3069 24.6084 19.7385 24.6084 19.7385V17.7523H20.2676V32.4628H24.6084V24.741L24.6176 24.7502Z" fill="white"/>
<defs>
<linearGradient id="paint0_linear_121_1211" x1="44.2206" y1="-5.5328" x2="3.78369" y2="46.0775" gradientUnits="userSpaceOnUse">
<stop stop-color="#435E86" stop-opacity="0.4"/>
<stop offset="1"/>
</linearGradient>
</defs>
</svg>
