<svg fill="none" height="386" viewBox="0 0 386 386" width="386" xmlns="http://www.w3.org/2000/svg"><path d="m193.189 32.1667c-88.555 0-160.6445 72.0273-160.6767 160.5823-.0161 28.306 7.3981 55.941 21.4549 80.291l-21.8005 80.793 84.1553-19.884c23.465 12.802 49.881 19.523 76.772 19.539h.063c88.539 0 160.597-72.043 160.645-160.582.032-42.927-16.66-83.286-46.993-113.6516-30.334-30.3492-70.646-47.0716-113.62-47.0877zm-.032 32.1667c34.354.016 66.639 13.4102 90.909 37.6636 24.269 24.286 37.602 56.556 37.569 90.877-.032 70.831-57.646 128.447-128.509 128.447-21.439-.016-42.676-5.399-61.381-15.612l-10.837-5.906-11.968 2.828-31.6645 7.476 7.7275-28.711 3.4868-12.88-6.6595-11.56c-11.2261-19.428-17.1674-41.642-17.1513-64.207.0321-70.799 57.663-128.4156 128.478-128.4156zm-56.826 54.2816c-2.685 0-7.028 1.005-10.711 5.026-3.683 4.004-14.073 13.704-14.073 33.454 0 19.751 14.387 38.842 16.397 41.528 1.995 2.67 27.771 44.48 68.574 60.564 33.904 13.365 40.79 10.727 48.156 10.052 7.366-.66 23.764-9.691 27.109-19.068 3.346-9.376 3.353-17.442 2.356-19.099-.997-1.672-3.675-2.67-7.696-4.68-4.005-2.011-23.74-11.702-27.423-13.037-3.683-1.334-6.377-2.01-9.047 2.011s-10.343 13.036-12.691 15.706c-2.348 2.686-4.68 3.047-8.701 1.037-4.021-2.027-16.949-6.276-32.292-19.947-11.934-10.631-19.987-23.748-22.335-27.769-2.332-4.005-.22-6.204 1.791-8.199 1.801-1.801 3.989-4.688 5.999-7.036 1.995-2.348 2.686-4.021 4.021-6.691s.652-5.026-.345-7.037c-.997-2.01-8.806-21.834-12.377-29.779-3.008-6.675-6.184-6.83-9.047-6.942-2.332-.097-4.995-.094-7.665-.094z" fill="#0f0"/></svg>