<svg width="45" height="45" viewBox="0 0 45 45" fill="none" xmlns="http://www.w3.org/2000/svg">
<path d="M36.5301 0.656677H8.43009C4.11892 0.656677 0.624023 4.17618 0.624023 8.51772V36.8156C0.624023 41.1571 4.11892 44.6766 8.43009 44.6766H36.5301C40.8412 44.6766 44.3361 41.1571 44.3361 36.8156V8.51772C44.3361 4.17618 40.8412 0.656677 36.5301 0.656677Z" fill="url(#paint0_linear_121_1194)"/>
<path d="M10.9171 10.9742L20.5245 23.8202L10.8564 34.2646H13.0323L21.4967 25.1204L28.3357 34.2646H35.7403L25.5924 20.696L34.5913 10.9742H32.4155L24.6202 19.3959L18.3218 10.9742H10.9171ZM14.1169 12.577H17.5186L32.54 32.6616H29.1383L14.1169 12.577Z" fill="white"/>
<defs>
<linearGradient id="paint0_linear_121_1194" x1="44.2534" y1="-5.5328" x2="3.81641" y2="46.0775" gradientUnits="userSpaceOnUse">
<stop stop-color="#435E86" stop-opacity="0.4"/>
<stop offset="1"/>
</linearGradient>
</defs>
</svg>
