<svg width="44" height="45" viewBox="0 0 44 45" fill="none" xmlns="http://www.w3.org/2000/svg">
<path d="M36.014 0.656677H7.91397C3.6028 0.656677 0.10791 4.17618 0.10791 8.51772V36.8156C0.10791 41.1571 3.6028 44.6766 7.91397 44.6766H36.014C40.3251 44.6766 43.82 41.1571 43.82 36.8156V8.51772C43.82 4.17618 40.3251 0.656677 36.014 0.656677Z" fill="url(#paint0_linear_121_1207)"/>
<g clip-path="url(#clip0_121_1207)">
<path d="M32.8959 16.8734C32.6203 15.8407 31.8125 15.0221 30.7917 14.745C28.9381 14.2476 21.5049 14.2476 21.5049 14.2476C21.5049 14.2476 14.0716 14.2476 12.218 14.745C11.1972 15.0221 10.3894 15.8407 10.1201 16.8734C9.61914 18.7499 9.61914 22.6666 9.61914 22.6666C9.61914 22.6666 9.61914 26.5771 10.1201 28.4536C10.3894 29.4926 11.1972 30.3049 12.218 30.5819C14.0716 31.0857 21.5049 31.0857 21.5049 31.0857C21.5049 31.0857 28.9381 31.0857 30.7917 30.5819C31.8125 30.3049 32.6203 29.4926 32.8959 28.4536C33.3906 26.5771 33.3906 22.6666 33.3906 22.6666C33.3906 22.6666 33.3906 18.7499 32.8959 16.8734ZM19.0751 26.2181V19.1088L25.2872 22.6666L19.0751 26.2181Z" fill="white"/>
</g>
<defs>
<linearGradient id="paint0_linear_121_1207" x1="43.7372" y1="-5.5328" x2="3.30029" y2="46.0775" gradientUnits="userSpaceOnUse">
<stop stop-color="#435E86" stop-opacity="0.4"/>
<stop offset="1"/>
</linearGradient>
<clipPath id="clip0_121_1207">
<rect width="23.7714" height="16.8381" fill="white" transform="translate(9.61914 14.2476)"/>
</clipPath>
</defs>
</svg>
